<svg xmlns="http://www.w3.org/2000/svg" xlink="http://www.w3.org/1999/xlink" viewBox="0 0 48 48"><symbol id="e" viewBox="0 -48 48 48" fill="#3888C5"><path fill="none" d="M0 0v-48h48V0z"></path></symbol><symbol id="f" viewBox="-0.0002 -48 48.0002 48.0002" fill="#3888C5"><defs fill="#3888C5"><path id="a" d="M48-48H0V0h48z" fill="#3888C5"></path></defs><clipPath id="b" fill="#3888C5"><use href="#a" overflow="visible" fill="#3888C5"></use><g clip-path="url(#b)" fill="#3888C5"><g fill="none" stroke="#3888C5" stroke-width=".25" stroke-miterlimit="10"><path d="M2-48V0M4-48V0M6-48V0M8-48V0M10-48V0M12-48V0M14-48V0M16-48V0M18-48V0M20-48V0M22-48V0M24-48V0M26-48V0M28-48V0M30-48V0M32-48V0M34-48V0M36-48V0M38-48V0M40-48V0M42-48V0M44-48V0M46-48V0" fill="#3888C5"></path></g><g fill="none" stroke="#3888C5" stroke-width=".25" stroke-miterlimit="10"><path d="M0-2h48M0-4h48M0-6h48M0-8h48M0-10h48M0-12h48M0-14h48M0-16h48M0-18h48M0-20h48M0-22h48M0-24h48M0-26h48M0-28h48M0-30h48M0-32h48M0-34h48M0-36h48M0-38h48M0-40h48M0-42h48M0-44h48M0-46h48" fill="#3888C5"></path></g><path d="M47.75-.25v-47.5H.25v47.5h47.5M48 0H0v-48h48V0z" fill="#3888C5"></path></g></clipPath></symbol><symbol id="g" viewBox="-0.0002 -48.0005 48.0002 48.0002" fill="#3888C5"><g opacity=".4" fill="#3888C5"><defs fill="#3888C5"><path id="c" opacity=".4" d="M0-48V0h48v-48z" fill="#3888C5"></path></defs><clipPath id="d" fill="#3888C5"><use href="#c" overflow="visible" fill="#3888C5"></use><path clip-path="url(#d)" fill="none" stroke="#3888C5" stroke-width=".25" stroke-miterlimit="10" d="M24 0v-48M48-24H0M48-16H0M48-32H0M32-48V0M16-48V0M47.75-.25L.25-47.75M.25-.25l47.5-47.5M24-14c-5.522 0-10-4.477-10-10s4.478-10 10-10c5.523 0 10 4.478 10 10 0 5.523-4.477 10-10 10z"></path><path d="M24-4C12.946-4 4-12.948 4-24c0-11.053 8.946-20 20-20 11.053 0 20 8.947 20 20 0 11.052-8.948 20-20 20z" clip-path="url(#d)" fill="none" stroke="#3888C5" stroke-width=".25" stroke-miterlimit="10"></path><path d="M40.5-42h-33c-.825 0-1.5.675-1.5 1.5v33C6-6.675 6.675-6 7.5-6h33c.825 0 1.5-.675 1.5-1.5v-33c0-.825-.675-1.5-1.5-1.5z" clip-path="url(#d)" fill="none" stroke="#3888C5" stroke-width=".25" stroke-miterlimit="10"></path><path d="M38.5-44h-29c-.825 0-1.5.675-1.5 1.5v37C8-4.675 8.675-4 9.5-4h29c.825 0 1.5-.675 1.5-1.5v-37c0-.825-.675-1.5-1.5-1.5z" clip-path="url(#d)" fill="none" stroke="#3888C5" stroke-width=".25" stroke-miterlimit="10"></path><g clip-path="url(#d)" fill="#3888C5"><path d="M47.75-.25v-47.5H.25v47.5h47.5M48 0H0v-48h48V0z" fill="#3888C5"></path></g><path d="M42.5-40h-37c-.825 0-1.5.675-1.5 1.5v29C4-8.675 4.675-8 5.5-8h37c.825 0 1.5-.675 1.5-1.5v-29c0-.825-.675-1.5-1.5-1.5z" clip-path="url(#d)" fill="none" stroke="#3888C5" stroke-width=".25" stroke-miterlimit="10"></path></clipPath></g></symbol><path d="M39.855 37.734l-9.477-9.477a13.046 13.046 0 0 0 2.848-8.144C33.226 12.87 27.356 7 20.113 7S7 12.87 7 20.113s5.87 13.113 13.113 13.113c3.08 0 5.906-1.07 8.144-2.847l9.477 9.475a1.504 1.504 0 0 0 2.12 0 1.504 1.504 0 0 0 0-2.12zm-19.742-7.508C14.536 30.226 10 25.69 10 20.113S14.536 10 20.113 10s10.113 4.537 10.113 10.113-4.537 10.113-10.113 10.113z" fill="#3888C5"></path></svg>